# xmcd CD database file
#
# Track frame offsets:
#	150
#	16890
#	33900
#	46695
#	57660
#	69810
#	85140
#	101775
#	116875
#	130685
#	141380
#	155895
#	166490
#	179925
#	190840
#	201395
#
# Disc length: 2851 seconds
#
# Revision: 0
# Processed by: cddbd v1.5.2PL0 Copyright (c) Steve Scherf et al.
# Submitted via: CdAid (MTCDDB.DLL V2003.12.21)
#
DISCID=ec0b2110
DTITLE=Various Artist - Cheiro da Terra
DYEAR=0
DGENRE=Folk
TTITLE0=CARREIRO E CARREIRINHO - Rei do café
TTITLE1=ROBERTO MENDES E SIDERLEI - Força do amor
TTITLE2=SIRIANO E SANNSÃO - Comendo capim
TTITLE3=CARLITO BADUY - A moça e o peão
TTITLE4=IRMÃS FREITAS - Copo de cerveja
TTITLE5=ZILO E ZALO - O mineiro e o italiano
TTITLE6=TIBAGI E NILTINHO - Mágoa de boiadeiro
TTITLE7=ADALBERTO E ADRIANO - Meu pequeno cachoeiro
TTITLE8=LIU E LEU - Saudade da minha terra
TTITLE9=PEÃO DE OURO E REI DO LAÇO - Esteio da nação
TTITLE10=BILLY NELSON - Dançando country
TTITLE11=JOEL E GIOVAN - Moreninha linda
TTITLE12=XIRÚ DO SUL - Toda panela é boa
TTITLE13=IRMÃS OLIVEIRA - Avião das nove
TTITLE14=LEANDRO E LEONARDO - A construção
TTITLE15=ROBERTO MENDES - Batidinho na janela
EXTD=YEAR: 0  ID3G:  80
EXTT0=
EXTT1=
EXTT2=
EXTT3=
EXTT4=
EXTT5=
EXTT6=
EXTT7=
EXTT8=
EXTT9=
EXTT10=
EXTT11=
EXTT12=
EXTT13=
EXTT14=
EXTT15=
PLAYORDER=
